<?xml version="1.0" encoding="utf-8"?>
<!-- Generator: Adobe Illustrator 24.1.1, SVG Export Plug-In . SVG Version: 6.00 Build 0)  -->
<svg version="1.1" id="Layer_1" xmlns="http://www.w3.org/2000/svg" xmlns:xlink="http://www.w3.org/1999/xlink" x="0px" y="0px"
	 viewBox="0 0 100 100" style="enable-background:new 0 0 100 100;" xml:space="preserve">
<style type="text/css">
	.st0{fill:#006837;}
	.st1{fill:none;stroke:#000000;stroke-miterlimit:10;}
	.st2{fill:#FFFFFF;stroke:#000000;stroke-miterlimit:10;}
	.st3{fill:#FFFFFF;stroke:#ED1C24;stroke-miterlimit:10;}
</style>
<g>
	<g>
		<polyline class="st0" points="81.7,80.3 73.6,80.3 77.7,84.4 81.7,80.3 		"/>
		<polyline class="st0" points="62.4,87.4 70.5,87.4 66.5,83.4 62.4,87.4 		"/>
		<polyline class="st0" points="54.3,80.7 46.1,80.7 50.2,84.8 54.3,80.7 		"/>
		<polyline class="st0" points="29.8,87.9 38,87.9 33.9,83.9 29.8,87.9 		"/>
		<polyline class="st0" points="25,80.4 31.2,75.2 25.5,74.7 25,80.4 		"/>
		<polyline class="st0" points="34.8,58.9 28.5,64 34.2,64.6 34.8,58.9 		"/>
		<polyline class="st0" points="44.2,65.1 50.6,60 44.8,59.4 44.2,65.1 		"/>
		<polyline class="st0" points="54.9,43.5 48.8,48.9 54.6,49.3 54.9,43.5 		"/>
		<polyline class="st0" points="65.6,47.8 71.9,42.7 66.2,42.1 65.6,47.8 		"/>
		<polyline class="st0" points="76.3,26.3 70.2,31.6 75.9,32 76.3,26.3 		"/>
		<polyline class="st0" points="81.7,15.1 73.5,15.3 77.7,19.3 81.7,15.1 		"/>
		<polyline class="st0" points="61.4,23.4 69.5,23.4 65.4,19.3 61.4,23.4 		"/>
		<polyline class="st0" points="54.3,15.2 46.1,15.2 50.2,19.3 54.3,15.2 		"/>
	</g>
	<path class="st1" d="M13.1,15.2h77.3c0,0,6.1,5.1,0,12.2L24.3,81.3l60-1c0,0,4.1,0,5.1,1c0,0,4.1,2,4.1,6.1l-80.3,1
		c0,0-6.1-6.1,0-12.2l67.1-52.9h-58C22.2,23.4,12,22.3,13.1,15.2z"/>
	<path class="st2" d="M24.3,17.3h13.2C37.5,17.3,30.4,25.4,24.3,17.3z"/>
	<path class="st3" d="M14.1,19.5c0,0-0.5,0.1-1.1,0.4c-0.8,0.4-2,0.9-3.2,1.8c-1.3,1-2.6,2.2-3.5,3.9c-0.1,0.2-0.2,0.5-0.3,0.7
		c0.1,0.2,0.9,1.9,1,2l-1-2l-2,2"/>
	<path class="st1" d="M16.1,44.7"/>
</g>
</svg>
